Audio, Video, Disco. is the upcoming second studio album by Justice, scheduled for release on 25 October 2011.

01.	Horsepower 3:39
02.	Civilization	3:39
03.	Ohio	4:01
04.	Canon (Primo) 0:27
05.	Canon 3:39
06.	On'n'on	4:30
07.	Brainvision 3:11
08.	Parade	4:01
09.	New Lands	4:14
10.	Helix 4:28
11.	Audio, Video, Disco. 4:53

LOG:

X Lossless Decoder version 20111015 (136.4)

XLD extraction logfile from 2011-10-20 17:25:25 -0500

Justice / Audio, Video, Disco

Used drive : PIONEER DVD-RW  DVRTS09 (revision Q90B)

Ripper mode             : XLD Secure Ripper
Disable audio cache     : OK for the drive with a cache less than 1375KiB
Make use of C2 pointers : NO
Read offset correction  : 96
Max retry count         : 100
Gap status              : Analyzed, Appended (except HTOA)

TOC of the extracted CD
     Track |   Start  |  Length  | Start sector | End sector 
    ---------------------------------------------------------
        1  | 00:00:00 | 03:40:06 |         0    |    16505   
        2  | 03:40:06 | 03:38:60 |     16506    |    32915   
        3  | 07:18:66 | 04:01:18 |     32916    |    51008   
        4  | 11:20:09 | 00:27:22 |     51009    |    53055   
        5  | 11:47:31 | 03:39:03 |     53056    |    69483   
        6  | 15:26:34 | 04:30:54 |     69484    |    89787   
        7  | 19:57:13 | 03:11:66 |     89788    |   104178   
        8  | 23:09:04 | 04:01:44 |    104179    |   122297   
        9  | 27:10:48 | 04:14:37 |    122298    |   141384   
       10  | 31:25:10 | 04:28:00 |    141385    |   161484   
       11  | 35:53:10 | 10:31:40 |    161485    |   208849   

AccurateRip Summary
    Disc not found in AccurateRip DB.

All Tracks
    Album gain             : -9.01 dB
    Peak                   : 1.000000
    Statistics
        Read error                           : 0
        Jitter error (maybe fixed)           : 0
        Retry sector count                   : 0
        Damaged sector count                 : 0

Track 01
    Filename : /Users/lemonbottle/Music/Justice - Audio Video Disco/Justice - Audio, Video, Disco (2011) [FLAC]/01 Horsepower.flac
    Pre-gap length : 00:02:00

    Track gain             : -9.66 dB
    Peak                   : 1.000000
    CRC32 hash (test run)  : A7BFE058
    CRC32 hash             : A7BFE058
    CRC32 hash (skip zero) : FA309E70
    AccurateRip signature  : 0B8CDCAA
        -&gt;Track not present in AccurateRip database.
    Statistics
        Read error                           : 0
        Jitter error (maybe fixed)           : 0
        Retry sector count                   : 0
        Damaged sector count                 : 0

Track 02
    Filename : /Users/lemonbottle/Music/Justice - Audio Video Disco/Justice - Audio, Video, Disco (2011) [FLAC]/02 Civilization.flac

    Track gain             : -9.80 dB
    Peak                   : 1.000000
    CRC32 hash (test run)  : 184FD439
    CRC32 hash             : 184FD439
    CRC32 hash (skip zero) : 9B3EB281
    AccurateRip signature  : F429096D
        -&gt;Track not present in AccurateRip database.
    Statistics
        Read error                           : 0
        Jitter error (maybe fixed)           : 0
        Retry sector count                   : 0
        Damaged sector count                 : 0

Track 03
    Filename : /Users/lemonbottle/Music/Justice - Audio Video Disco/Justice - Audio, Video, Disco (2011) [FLAC]/03 Ohio.flac

    Track gain             : -8.97 dB
    Peak                   : 1.000000
    CRC32 hash (test run)  : 2A542431
    CRC32 hash             : 2A542431
    CRC32 hash (skip zero) : 26A05814
    AccurateRip signature  : E4347022
        -&gt;Track not present in AccurateRip database.
    Statistics
        Read error                           : 0
        Jitter error (maybe fixed)           : 0
        Retry sector count                   : 0
        Damaged sector count                 : 0

Track 04
    Filename : /Users/lemonbottle/Music/Justice - Audio Video Disco/Justice - Audio, Video, Disco (2011) [FLAC]/04 Canon (Primo).flac

    Track gain             : 2.35 dB
    Peak                   : 0.580597
    CRC32 hash (test run)  : B333C2C0
    CRC32 hash             : B333C2C0
    CRC32 hash (skip zero) : 40171F14
    AccurateRip signature  : 63F08E59
        -&gt;Track not present in AccurateRip database.
    Statistics
        Read error                           : 0
        Jitter error (maybe fixed)           : 0
        Retry sector count                   : 0
        Damaged sector count                 : 0

Track 05
    Filename : /Users/lemonbottle/Music/Justice - Audio Video Disco/Justice - Audio, Video, Disco (2011) [FLAC]/05 Canon.flac

    Track gain             : -8.73 dB
    Peak                   : 1.000000
    CRC32 hash (test run)  : 364CEBC6
    CRC32 hash             : 364CEBC6
    CRC32 hash (skip zero) : D445A14C
    AccurateRip signature  : DA39C27B
        -&gt;Track not present in AccurateRip database.
    Statistics
        Read error                           : 0
        Jitter error (maybe fixed)           : 0
        Retry sector count                   : 0
        Damaged sector count                 : 0

Track 06
    Filename : /Users/lemonbottle/Music/Justice - Audio Video Disco/Justice - Audio, Video, Disco (2011) [FLAC]/06 On'n'On.flac

    Track gain             : -8.90 dB
    Peak                   : 1.000000
    CRC32 hash (test run)  : 9D5FFE51
    CRC32 hash             : 9D5FFE51
    CRC32 hash (skip zero) : E6B6DDC8
    AccurateRip signature  : 65C13A2A
        -&gt;Track not present in AccurateRip database.
    Statistics
        Read error                           : 0
        Jitter error (maybe fixed)           : 0
        Retry sector count                   : 0
        Damaged sector count                 : 0

Track 07
    Filename : /Users/lemonbottle/Music/Justice - Audio Video Disco/Justice - Audio, Video, Disco (2011) [FLAC]/07 Brianvision.flac

    Track gain             : -7.25 dB
    Peak                   : 1.000000
    CRC32 hash (test run)  : DEEE2D48
    CRC32 hash             : DEEE2D48
    CRC32 hash (skip zero) : FE21007D
    AccurateRip signature  : 5D4E4917
        -&gt;Track not present in AccurateRip database.
    Statistics
        Read error                           : 0
        Jitter error (maybe fixed)           : 0
        Retry sector count                   : 0
        Damaged sector count                 : 0

Track 08
    Filename : /Users/lemonbottle/Music/Justice - Audio Video Disco/Justice - Audio, Video, Disco (2011) [FLAC]/08 Parade.flac

    Track gain             : -8.78 dB
    Peak                   : 1.000000
    CRC32 hash (test run)  : 0B6D13F6
    CRC32 hash             : 0B6D13F6
    CRC32 hash (skip zero) : F23C3754
    AccurateRip signature  : 250B32CC
        -&gt;Track not present in AccurateRip database.
    Statistics
        Read error                           : 0
        Jitter error (maybe fixed)           : 0
        Retry sector count                   : 0
        Damaged sector count                 : 0

Track 09
    Filename : /Users/lemonbottle/Music/Justice - Audio Video Disco/Justice - Audio, Video, Disco (2011) [FLAC]/09 New Lands.flac

    Track gain             : -10.22 dB
    Peak                   : 1.000000
    CRC32 hash (test run)  : 14B7B930
    CRC32 hash             : 14B7B930
    CRC32 hash (skip zero) : 7BAC00A6
    AccurateRip signature  : A064E0DE
        -&gt;Track not present in AccurateRip database.
    Statistics
        Read error                           : 0
        Jitter error (maybe fixed)           : 0
        Retry sector count                   : 0
        Damaged sector count                 : 0

Track 10
    Filename : /Users/lemonbottle/Music/Justice - Audio Video Disco/Justice - Audio, Video, Disco (2011) [FLAC]/10 Helix.flac

    Track gain             : -8.52 dB
    Peak                   : 1.000000
    CRC32 hash (test run)  : 662F3E5A
    CRC32 hash             : 662F3E5A
    CRC32 hash (skip zero) : 88927B70
    AccurateRip signature  : 10E1DD78
        -&gt;Track not present in AccurateRip database.
    Statistics
        Read error                           : 0
        Jitter error (maybe fixed)           : 0
        Retry sector count                   : 0
        Damaged sector count                 : 0

Track 11
    Filename : /Users/lemonbottle/Music/Justice - Audio Video Disco/Justice - Audio, Video, Disco (2011) [FLAC]/11 Audio, Video, Disco.flac

    Track gain             : -7.44 dB
    Peak                   : 1.000000
    CRC32 hash (test run)  : 8D3FB8C3
    CRC32 hash             : 8D3FB8C3
    CRC32 hash (skip zero) : 84CAB830
    AccurateRip signature  : 46E25AF7
        -&gt;Track not present in AccurateRip database.
    Statistics
        Read error                           : 0
        Jitter error (maybe fixed)           : 0
        Retry sector count                   : 0
        Damaged sector count                 : 0

No errors occurred

End of status report
